<mxfile host="app.diagrams.net" modified="2021-09-26T10:20:57.107Z" agent="5.0 (Macintosh; Intel Mac OS X 10_15_7) AppleWebKit/537.36 (KHTML, like Gecko) Chrome/93.0.4577.63 Safari/537.36" etag="XSWoDiCSNTzPcaIbm8yA" version="14.8.0" type="github">
  <diagram id="_OLbAOK18SDpISjIcgk_" name="第 1 页">
    <mxGraphModel dx="676" dy="1272" grid="1" gridSize="10" guides="1" tooltips="1" connect="1" arrows="1" fold="1" page="1" pageScale="1" pageWidth="827" pageHeight="1169" math="0" shadow="0">
      <root>
        <mxCell id="mrkgzdtRehCv03NL-Pp9-0" />
        <mxCell id="mrkgzdtRehCv03NL-Pp9-1" parent="mrkgzdtRehCv03NL-Pp9-0" />
        <mxCell id="SWFfBYRvg9UMNW-__7xX-16" style="edgeStyle=orthogonalEdgeStyle;curved=1;rounded=0;orthogonalLoop=1;jettySize=auto;html=1;exitX=1;exitY=0.25;exitDx=0;exitDy=0;entryX=0;entryY=0.5;entryDx=0;entryDy=0;" parent="mrkgzdtRehCv03NL-Pp9-1" source="SWFfBYRvg9UMNW-__7xX-0" target="SWFfBYRvg9UMNW-__7xX-11" edge="1">
          <mxGeometry relative="1" as="geometry" />
        </mxCell>
        <mxCell id="SWFfBYRvg9UMNW-__7xX-17" style="edgeStyle=orthogonalEdgeStyle;curved=1;rounded=0;orthogonalLoop=1;jettySize=auto;html=1;exitX=1;exitY=0.75;exitDx=0;exitDy=0;entryX=0;entryY=0.75;entryDx=0;entryDy=0;" parent="mrkgzdtRehCv03NL-Pp9-1" source="SWFfBYRvg9UMNW-__7xX-0" target="SWFfBYRvg9UMNW-__7xX-14" edge="1">
          <mxGeometry relative="1" as="geometry" />
        </mxCell>
        <mxCell id="SWFfBYRvg9UMNW-__7xX-0" value="&lt;pre style=&quot;background-color: #2b2b2b ; color: #a9b7c6 ; font-family: &amp;#34;menlo-regular&amp;#34; , monospace ; font-size: 12.0pt&quot;&gt;&lt;span style=&quot;color: #e6b163&quot;&gt;ApiEnvoyFilter&lt;/span&gt;&lt;/pre&gt;" style="rounded=0;whiteSpace=wrap;html=1;" parent="mrkgzdtRehCv03NL-Pp9-1" vertex="1">
          <mxGeometry x="30" y="150" width="140" height="70" as="geometry" />
        </mxCell>
        <mxCell id="SWFfBYRvg9UMNW-__7xX-33" style="edgeStyle=orthogonalEdgeStyle;curved=1;rounded=0;orthogonalLoop=1;jettySize=auto;html=1;entryX=0;entryY=0.5;entryDx=0;entryDy=0;exitX=1;exitY=0.25;exitDx=0;exitDy=0;" parent="mrkgzdtRehCv03NL-Pp9-1" source="SWFfBYRvg9UMNW-__7xX-2" target="SWFfBYRvg9UMNW-__7xX-3" edge="1">
          <mxGeometry relative="1" as="geometry" />
        </mxCell>
        <mxCell id="SWFfBYRvg9UMNW-__7xX-35" style="edgeStyle=orthogonalEdgeStyle;curved=1;rounded=0;orthogonalLoop=1;jettySize=auto;html=1;exitX=1;exitY=0.5;exitDx=0;exitDy=0;entryX=-0.017;entryY=0.374;entryDx=0;entryDy=0;entryPerimeter=0;" parent="mrkgzdtRehCv03NL-Pp9-1" source="SWFfBYRvg9UMNW-__7xX-2" target="SWFfBYRvg9UMNW-__7xX-4" edge="1">
          <mxGeometry relative="1" as="geometry">
            <Array as="points">
              <mxPoint x="140" y="420" />
              <mxPoint x="175" y="420" />
              <mxPoint x="175" y="436" />
            </Array>
          </mxGeometry>
        </mxCell>
        <mxCell id="SWFfBYRvg9UMNW-__7xX-49" style="edgeStyle=orthogonalEdgeStyle;curved=1;rounded=0;orthogonalLoop=1;jettySize=auto;html=1;exitX=1;exitY=0.75;exitDx=0;exitDy=0;entryX=-0.002;entryY=0.643;entryDx=0;entryDy=0;entryPerimeter=0;" parent="mrkgzdtRehCv03NL-Pp9-1" source="SWFfBYRvg9UMNW-__7xX-2" target="SWFfBYRvg9UMNW-__7xX-8" edge="1">
          <mxGeometry relative="1" as="geometry">
            <Array as="points">
              <mxPoint x="150" y="463" />
              <mxPoint x="150" y="450" />
              <mxPoint x="175" y="450" />
              <mxPoint x="175" y="609" />
            </Array>
          </mxGeometry>
        </mxCell>
        <mxCell id="SWFfBYRvg9UMNW-__7xX-54" style="edgeStyle=orthogonalEdgeStyle;curved=1;rounded=0;orthogonalLoop=1;jettySize=auto;html=1;exitX=0.5;exitY=1;exitDx=0;exitDy=0;entryX=0;entryY=0.5;entryDx=0;entryDy=0;" parent="mrkgzdtRehCv03NL-Pp9-1" source="SWFfBYRvg9UMNW-__7xX-2" target="SWFfBYRvg9UMNW-__7xX-9" edge="1">
          <mxGeometry relative="1" as="geometry" />
        </mxCell>
        <mxCell id="SWFfBYRvg9UMNW-__7xX-2" value="&lt;pre style=&quot;background-color: #2b2b2b ; color: #a9b7c6 ; font-family: &amp;#34;menlo-regular&amp;#34; , monospace ; font-size: 12.0pt&quot;&gt;&lt;span style=&quot;color: #afbf7e&quot;&gt;canary&lt;/span&gt;&lt;/pre&gt;" style="rounded=0;whiteSpace=wrap;html=1;" parent="mrkgzdtRehCv03NL-Pp9-1" vertex="1">
          <mxGeometry x="30" y="380" width="110" height="110" as="geometry" />
        </mxCell>
        <mxCell id="SWFfBYRvg9UMNW-__7xX-34" style="edgeStyle=orthogonalEdgeStyle;curved=1;rounded=0;orthogonalLoop=1;jettySize=auto;html=1;entryX=0.005;entryY=0.372;entryDx=0;entryDy=0;entryPerimeter=0;" parent="mrkgzdtRehCv03NL-Pp9-1" source="SWFfBYRvg9UMNW-__7xX-3" target="SWFfBYRvg9UMNW-__7xX-32" edge="1">
          <mxGeometry relative="1" as="geometry" />
        </mxCell>
        <mxCell id="SWFfBYRvg9UMNW-__7xX-3" value="&lt;pre style=&quot;background-color: #2b2b2b ; color: #a9b7c6 ; font-family: &amp;#34;menlo-regular&amp;#34; , monospace ; font-size: 12.0pt&quot;&gt;&lt;span style=&quot;color: #9876aa ; font-style: italic&quot;&gt;MicroService&lt;/span&gt;&lt;/pre&gt;" style="rounded=0;whiteSpace=wrap;html=1;" parent="mrkgzdtRehCv03NL-Pp9-1" vertex="1">
          <mxGeometry x="220" y="310" width="120" height="60" as="geometry" />
        </mxCell>
        <mxCell id="SWFfBYRvg9UMNW-__7xX-46" style="edgeStyle=orthogonalEdgeStyle;curved=1;rounded=0;orthogonalLoop=1;jettySize=auto;html=1;exitX=1;exitY=0.75;exitDx=0;exitDy=0;" parent="mrkgzdtRehCv03NL-Pp9-1" source="SWFfBYRvg9UMNW-__7xX-4" target="SWFfBYRvg9UMNW-__7xX-45" edge="1">
          <mxGeometry relative="1" as="geometry" />
        </mxCell>
        <mxCell id="SWFfBYRvg9UMNW-__7xX-57" style="edgeStyle=orthogonalEdgeStyle;curved=1;rounded=0;orthogonalLoop=1;jettySize=auto;html=1;exitX=1;exitY=0.25;exitDx=0;exitDy=0;entryX=0;entryY=0.5;entryDx=0;entryDy=0;" parent="mrkgzdtRehCv03NL-Pp9-1" source="SWFfBYRvg9UMNW-__7xX-4" target="SWFfBYRvg9UMNW-__7xX-36" edge="1">
          <mxGeometry relative="1" as="geometry" />
        </mxCell>
        <mxCell id="SWFfBYRvg9UMNW-__7xX-4" value="&lt;pre style=&quot;background-color: #2b2b2b ; color: #a9b7c6 ; font-family: &amp;#34;menlo-regular&amp;#34; , monospace ; font-size: 12.0pt&quot;&gt;&lt;span style=&quot;color: #9876aa ; font-style: italic&quot;&gt;CanaryDelivery&lt;/span&gt;&lt;/pre&gt;" style="rounded=0;whiteSpace=wrap;html=1;" parent="mrkgzdtRehCv03NL-Pp9-1" vertex="1">
          <mxGeometry x="210" y="410" width="140" height="70" as="geometry" />
        </mxCell>
        <mxCell id="SWFfBYRvg9UMNW-__7xX-51" style="edgeStyle=orthogonalEdgeStyle;curved=1;rounded=0;orthogonalLoop=1;jettySize=auto;html=1;exitX=1;exitY=0.5;exitDx=0;exitDy=0;entryX=0;entryY=0.5;entryDx=0;entryDy=0;" parent="mrkgzdtRehCv03NL-Pp9-1" source="SWFfBYRvg9UMNW-__7xX-8" target="SWFfBYRvg9UMNW-__7xX-50" edge="1">
          <mxGeometry relative="1" as="geometry" />
        </mxCell>
        <mxCell id="SWFfBYRvg9UMNW-__7xX-8" value="&lt;pre style=&quot;background-color: #2b2b2b ; color: #a9b7c6 ; font-family: &amp;#34;menlo-regular&amp;#34; , monospace ; font-size: 12.0pt&quot;&gt;&lt;span style=&quot;color: #9876aa ; font-style: italic&quot;&gt;Deployment&lt;/span&gt;&lt;/pre&gt;" style="rounded=0;whiteSpace=wrap;html=1;" parent="mrkgzdtRehCv03NL-Pp9-1" vertex="1">
          <mxGeometry x="210" y="570" width="120" height="60" as="geometry" />
        </mxCell>
        <mxCell id="SWFfBYRvg9UMNW-__7xX-56" style="edgeStyle=orthogonalEdgeStyle;curved=1;rounded=0;orthogonalLoop=1;jettySize=auto;html=1;exitX=1;exitY=0.5;exitDx=0;exitDy=0;entryX=0;entryY=0.5;entryDx=0;entryDy=0;" parent="mrkgzdtRehCv03NL-Pp9-1" source="SWFfBYRvg9UMNW-__7xX-9" target="SWFfBYRvg9UMNW-__7xX-55" edge="1">
          <mxGeometry relative="1" as="geometry" />
        </mxCell>
        <mxCell id="SWFfBYRvg9UMNW-__7xX-9" value="&lt;pre style=&quot;background-color: #2b2b2b ; color: #a9b7c6 ; font-family: &amp;#34;menlo-regular&amp;#34; , monospace ; font-size: 12.0pt&quot;&gt;&lt;span style=&quot;color: #9876aa ; font-style: italic&quot;&gt;Canary&lt;/span&gt;&lt;/pre&gt;" style="rounded=0;whiteSpace=wrap;html=1;" parent="mrkgzdtRehCv03NL-Pp9-1" vertex="1">
          <mxGeometry x="210" y="680" width="120" height="60" as="geometry" />
        </mxCell>
        <mxCell id="SWFfBYRvg9UMNW-__7xX-23" style="edgeStyle=orthogonalEdgeStyle;curved=1;rounded=0;orthogonalLoop=1;jettySize=auto;html=1;exitX=1;exitY=0.25;exitDx=0;exitDy=0;entryX=0;entryY=0.5;entryDx=0;entryDy=0;" parent="mrkgzdtRehCv03NL-Pp9-1" source="SWFfBYRvg9UMNW-__7xX-11" target="SWFfBYRvg9UMNW-__7xX-21" edge="1">
          <mxGeometry relative="1" as="geometry" />
        </mxCell>
        <mxCell id="SWFfBYRvg9UMNW-__7xX-25" style="edgeStyle=orthogonalEdgeStyle;curved=1;rounded=0;orthogonalLoop=1;jettySize=auto;html=1;exitX=1;exitY=0.75;exitDx=0;exitDy=0;entryX=0;entryY=0.25;entryDx=0;entryDy=0;" parent="mrkgzdtRehCv03NL-Pp9-1" source="SWFfBYRvg9UMNW-__7xX-11" target="SWFfBYRvg9UMNW-__7xX-22" edge="1">
          <mxGeometry relative="1" as="geometry" />
        </mxCell>
        <mxCell id="SWFfBYRvg9UMNW-__7xX-11" value="&lt;pre style=&quot;background-color: #2b2b2b ; color: #a9b7c6 ; font-family: &amp;#34;menlo-regular&amp;#34; , monospace ; font-size: 12.0pt&quot;&gt;&lt;span style=&quot;color: #6fafbd&quot;&gt;ApiAttribute&lt;/span&gt;&lt;/pre&gt;" style="rounded=0;whiteSpace=wrap;html=1;" parent="mrkgzdtRehCv03NL-Pp9-1" vertex="1">
          <mxGeometry x="220" y="110" width="120" height="60" as="geometry" />
        </mxCell>
        <mxCell id="SWFfBYRvg9UMNW-__7xX-30" style="edgeStyle=orthogonalEdgeStyle;curved=1;rounded=0;orthogonalLoop=1;jettySize=auto;html=1;entryX=0;entryY=0.375;entryDx=0;entryDy=0;entryPerimeter=0;" parent="mrkgzdtRehCv03NL-Pp9-1" source="SWFfBYRvg9UMNW-__7xX-14" target="SWFfBYRvg9UMNW-__7xX-29" edge="1">
          <mxGeometry relative="1" as="geometry" />
        </mxCell>
        <mxCell id="SWFfBYRvg9UMNW-__7xX-14" value="&lt;pre style=&quot;background-color: #2b2b2b ; color: #a9b7c6 ; font-family: &amp;#34;menlo-regular&amp;#34; , monospace ; font-size: 12.0pt&quot;&gt;&lt;span style=&quot;color: #9876aa ; font-style: italic&quot;&gt;ConfigMap&lt;/span&gt;&lt;/pre&gt;" style="rounded=0;whiteSpace=wrap;html=1;" parent="mrkgzdtRehCv03NL-Pp9-1" vertex="1">
          <mxGeometry x="220" y="210" width="120" height="60" as="geometry" />
        </mxCell>
        <mxCell id="SWFfBYRvg9UMNW-__7xX-21" value="create or update envoyfilter" style="shape=document;whiteSpace=wrap;html=1;boundedLbl=1;" parent="mrkgzdtRehCv03NL-Pp9-1" vertex="1">
          <mxGeometry x="465" y="10" width="120" height="80" as="geometry" />
        </mxCell>
        <mxCell id="SWFfBYRvg9UMNW-__7xX-22" value="create or update configmap" style="shape=document;whiteSpace=wrap;html=1;boundedLbl=1;" parent="mrkgzdtRehCv03NL-Pp9-1" vertex="1">
          <mxGeometry x="465" y="100" width="120" height="80" as="geometry" />
        </mxCell>
        <mxCell id="SWFfBYRvg9UMNW-__7xX-24" value="service mesh" style="text;html=1;strokeColor=none;fillColor=none;align=center;verticalAlign=middle;whiteSpace=wrap;rounded=0;" parent="mrkgzdtRehCv03NL-Pp9-1" vertex="1">
          <mxGeometry x="310" y="80" width="90" height="20" as="geometry" />
        </mxCell>
        <mxCell id="SWFfBYRvg9UMNW-__7xX-26" value="spring cloud" style="text;html=1;strokeColor=none;fillColor=none;align=center;verticalAlign=middle;whiteSpace=wrap;rounded=0;" parent="mrkgzdtRehCv03NL-Pp9-1" vertex="1">
          <mxGeometry x="360" y="150" width="70" height="20" as="geometry" />
        </mxCell>
        <mxCell id="SWFfBYRvg9UMNW-__7xX-29" value="import api from configmap with swagger prefix to ApiAttrbute" style="shape=document;whiteSpace=wrap;html=1;boundedLbl=1;" parent="mrkgzdtRehCv03NL-Pp9-1" vertex="1">
          <mxGeometry x="470" y="200" width="120" height="80" as="geometry" />
        </mxCell>
        <mxCell id="SWFfBYRvg9UMNW-__7xX-32" value="create a CanaryDeliver resource of each microservice" style="shape=document;whiteSpace=wrap;html=1;boundedLbl=1;" parent="mrkgzdtRehCv03NL-Pp9-1" vertex="1">
          <mxGeometry x="470" y="300" width="120" height="80" as="geometry" />
        </mxCell>
        <mxCell id="SWFfBYRvg9UMNW-__7xX-36" value="create Canary" style="shape=document;whiteSpace=wrap;html=1;boundedLbl=1;" parent="mrkgzdtRehCv03NL-Pp9-1" vertex="1">
          <mxGeometry x="470" y="395" width="120" height="80" as="geometry" />
        </mxCell>
        <mxCell id="SWFfBYRvg9UMNW-__7xX-44" value="启用灰度" style="text;html=1;strokeColor=none;fillColor=none;align=center;verticalAlign=middle;whiteSpace=wrap;rounded=0;" parent="mrkgzdtRehCv03NL-Pp9-1" vertex="1">
          <mxGeometry x="360" y="410" width="105" height="20" as="geometry" />
        </mxCell>
        <mxCell id="SWFfBYRvg9UMNW-__7xX-45" value="1 restore deployment&lt;br&gt;2 remove label from microservice&lt;br&gt;3 delete canary&lt;br&gt;4 update canaryDelivery status" style="shape=document;whiteSpace=wrap;html=1;boundedLbl=1;" parent="mrkgzdtRehCv03NL-Pp9-1" vertex="1">
          <mxGeometry x="470" y="480" width="200" height="100" as="geometry" />
        </mxCell>
        <mxCell id="SWFfBYRvg9UMNW-__7xX-47" value="停用灰度" style="text;html=1;strokeColor=none;fillColor=none;align=center;verticalAlign=middle;whiteSpace=wrap;rounded=0;" parent="mrkgzdtRehCv03NL-Pp9-1" vertex="1">
          <mxGeometry x="360" y="470" width="60" height="30" as="geometry" />
        </mxCell>
        <mxCell id="SWFfBYRvg9UMNW-__7xX-50" value="when canary is deleting or CanaryDelivery is not Is avaliable and origin deployment is ready,&amp;nbsp;&lt;br&gt;update CanaryDelivery status.CanaryReady." style="shape=document;whiteSpace=wrap;html=1;boundedLbl=1;" parent="mrkgzdtRehCv03NL-Pp9-1" vertex="1">
          <mxGeometry x="475" y="600" width="190" height="110" as="geometry" />
        </mxCell>
        <mxCell id="SWFfBYRvg9UMNW-__7xX-55" value="sync canary status to CanaryDelivery status" style="shape=document;whiteSpace=wrap;html=1;boundedLbl=1;" parent="mrkgzdtRehCv03NL-Pp9-1" vertex="1">
          <mxGeometry x="480" y="740" width="180" height="60" as="geometry" />
        </mxCell>
      </root>
    </mxGraphModel>
  </diagram>
</mxfile>
